<?xml version="1.0" encoding="UTF-8"?>
<svg id="a" data-name="图层 1" xmlns="http://www.w3.org/2000/svg" viewBox="0 0 408.24 522.03">
  <defs>
    <style>
      .b {
        fill: #d6c62d;
      }

      .c {
        fill: #dd561a;
      }

      .d {
        fill: #1d7f3b;
      }

      .e {
        fill: #339cd1;
      }
    </style>
  </defs>
  <g>
    <g>
      <path class="b" d="M87.2,430.31c4.2-.41,8.46-.35,12.67-.14,8.55,1.19,16.93,4.8,23.1,10.94,4.2,4.54,7.91,10.39,7.12,16.86.21,4.45-4.46,7.86-8.68,7.15-3.97-.12-6.22-3.8-7.88-6.91-3.11-5.73-7.87-11.1-14.43-12.74-5.73-1.08-11.92-.41-16.89,2.82-5.98,3.18-9.41,9.52-10.85,15.93-1.81,6-1.39,12.32-1.25,18.5.83,6.71,2.96,13.67,7.81,18.61,8.5,8.28,24.02,7.86,31.68-1.37,3.93-3.93,4.22-10.06,7.95-14.1,3.65-2.94,9.88-1.65,11.94,2.64,1.86,3.39.68,7.35-.4,10.79-2.54,6.94-7.42,13.07-13.85,16.78-11.23,6.8-25.47,7.09-37.72,3.07-8.74-2.76-15.51-9.68-20.04-17.44-3.03-4.45-4.36-9.74-5.4-14.94-1.09-4.71-.62-9.59-.69-14.38-.12-4.39,1.07-8.66,2.1-12.88,2.52-9.53,8.73-17.95,17.02-23.27,5.1-3.07,10.79-5.02,16.66-5.91Z"/>
      <path class="b" d="M178.19,430.28c7.31-.41,14.82-.74,21.89,1.5,6.23,1.6,11.67,5.31,16.38,9.58,9.06,9.16,12.76,22.53,12.15,35.17.41,14.28-5.22,29.19-16.79,38.01-5.54,3.65-11.83,6.18-18.44,6.91-9.76.64-20.09.65-28.96-4.05-7.09-3.12-12.67-8.98-16.54-15.58-7.36-16.15-7.86-35.67.09-51.71,5.47-11.58,17.81-18.48,30.22-19.84ZM180.09,445.48c-4.33,1.12-8.53,3.25-11.56,6.57-5.53,6.54-7.88,15.33-7.64,23.79-.03,8.67,2.12,18.02,8.55,24.25,3.87,4.22,9.57,6.75,15.31,6.56,3.66.2,7.38-.34,10.66-2.06,6.21-2.63,10.43-8.53,12.54-14.76,3.18-9.69,2.78-20.49-.76-30.04-1.98-5.6-6.35-10.24-11.77-12.67-4.71-2.38-10.21-2.49-15.31-1.65Z"/>
    </g>
    <path class="d" d="M250.57,430.3c2.87-.47,6.31-.69,8.62,1.44,2.92,2.23,3.83,6.1,3.77,9.6,0,22.53-.01,45.06,0,67.59.1,3.37-.28,6.98-2.32,9.79-1.74,2.15-4.51,2.93-7.13,3.31-5.33-.14-9.32-5.18-9.13-10.36-.11-22.28,0-44.56-.05-66.84,0-3.28-.24-6.7,1.12-9.77.85-2.27,2.82-4.02,5.11-4.76Z"/>
    <path class="d" d="M286.46,432.19c3.03-2.57,7.45-2.71,11.06-1.46,4.42,1.81,6.38,6.49,8.86,10.21,8.01,12.6,16.27,25.04,24.73,37.35,2.21,3.36,4.41,6.72,6.53,10.14.52.94,1.43,1.52,2.28,2.13.33-17.32-.01-34.65.17-51.98-.2-3.74,2.24-7.78,6.11-8.42,2.43-.27,5.15-.34,7.22,1.2,3.01,2.01,3.55,5.97,3.43,9.31,0,23.45.07,46.9-.03,70.35.2,3.93-1.38,8.48-5.31,10.03-3.48,1.19-7.55,1.02-10.83-.7-4.08-2.76-6.64-7.11-9.33-11.12-7.29-11.2-14.76-22.29-21.73-33.68-2.95-4.58-6.02-9.08-8.93-13.68-.27-.07-.8-.19-1.07-.26.02,16.93.07,33.85-.03,50.77.12,3.51-1.71,7.57-5.25,8.68-2.87.06-6.44.97-8.66-1.39-3.29-2.77-3.44-7.47-3.36-11.43.03-22.07-.01-44.14.02-66.21.01-3.62,1.08-7.58,4.12-9.84Z"/>
  </g>
  <g>
    <path class="e" d="M204.12,0C91.39,0,0,91.39,0,204.12s91.39,204.12,204.12,204.12,204.12-91.39,204.12-204.12S316.85,0,204.12,0ZM366.46,320.1c-4.37,1.77-9.13.89-13.75-.56-34.43,44.26-88.19,72.74-148.6,72.74s-114.08-28.43-148.51-72.62c-7.05,1.66-14.2,1.84-18.76-3.27-5.41-6.07-2.89-15.48,1.96-22.32-14.57-26.72-22.86-57.37-22.86-89.95C15.95,100.2,100.2,15.95,204.12,15.95s188.16,84.24,188.16,188.16c0,32.22-8.1,62.54-22.38,89.06,2.03,2.49,3.61,5.37,4.45,8.44.48,1.74.71,3.54.65,5.35-.17,5.52-3.42,11.07-8.55,13.14Z"/>
    <g>
      <path class="d" d="M138.69,273.01c23.13,5.25,46.22,18.62,61.34,43.61-10.65-27.32-30.79-46.04-52.75-53.28-28.21-9.3-57.87-6.1-86.01,2.05-7.75,1.02-10.29,12.35-14.69,19.29,29.7-12.07,61.26-18.59,92.11-11.67Z"/>
      <path class="d" d="M261.4,275.46c33.44-10.6,68.48-4.02,100.96,9.2-4.47-6.85-6.84-18.39-14.65-19.22-28.49-8.27-58.61-11.57-87.1-1.67-21.35,7.32-40.86,25.57-51.42,52.06,13.41-21.02,32.37-34.21,52.21-40.36Z"/>
      <path class="d" d="M365.78,303.59c-.29-1.4-.91-2.72-1.87-3.75-3.71-3.97-10.19-4.51-15.12-6.06-7.53-2.36-15.51-3.81-23.25-5.28-15.59-2.97-31.57-4.72-47.41-2.92-24.08,2.73-48.41,15.09-59.27,36.76-3.26,6.52-6.97,14.94-14.25,14.91-7.15-.02-10.86-8.19-14.12-14.56-11.45-22.39-36.86-34.95-61.89-37.37-25.03-2.43-50.03,3.72-74.28,10.35-3.55.97-7.29,2.06-9.82,4.75-2.53,2.68-3.17,7.49-.34,9.85,2.48,2.07,6.16,1.36,9.27.54,22.73-6.03,45.78-12.8,69.27-11.76,23.5,1.03,48.08,11.49,59.31,32.16,2.55,4.68,4.41,9.86,8.04,13.76,6.6,7.09,18.76,8.04,26.37,2.05,5.93-4.66,8.62-12.21,12.55-18.65,12.1-19.81,36.67-29.06,59.88-29.45,23.21-.39,45.82,6.57,68.31,12.34,1.49.38,3.05.76,4.56.46,3.43-.69,4.78-4.62,4.05-8.12Z"/>
    </g>
    <g>
      <path class="c" d="M181.67,77.45c0,1.3-.13,2.56-.32,3.81,11.81,8.43,25.51,17.61,35.02,22.83,6.4,3.75,12.78,7.5,19.17,11.25,3.54-4.06,8.73-6.64,14.54-6.64,7.99,0,14.84,4.85,17.77,11.77,6.91-1.46,13.8-2.96,20.62-4.76.31-6.15,4.19-11.35,9.62-13.55-17.48-17.79-39.68-30.3-62.68-39.48-20.33-6.8-42.43-9.53-63.35-4.91,5.85,4.58,9.62,11.68,9.62,19.68Z"/>
      <path class="c" d="M289.9,123.03c-6.87,1.55-13.72,3.18-20.53,4.96,0,2.38-.45,4.65-1.25,6.76,7.46,6.54,22.03,17.77,34.26,25.44.71.44,1.44.77,2.17,1.04,2.77-2.63,6.51-4.25,10.63-4.25.75,0,1.48.07,2.2.17,1.13-1.63,1.84-3.6,1.9-5.82.02-.65.04-1.28.08-1.89-.05-6.81-1.96-13.27-4.33-19.6-.24-.64-.55-1.23-.87-1.81-2.73,2.43-6.32,3.92-10.26,3.92-6.2,0-11.52-3.65-13.99-8.91Z"/>
      <path class="c" d="M111.64,157.29c7.05-1.77,14.06-3.79,21.06-5.43,6.35-1.26,12.66-2.67,18.92-4.32-.05-.58-.09-1.17-.09-1.76,0-6.77,3.5-12.72,8.78-16.16-1.81-5.96-3.64-11.9-5.49-17.85-.96-3.26-1.94-6.53-2.94-9.79-11.51-2.24-20.21-12.36-20.21-24.53,0-.98.07-1.94.18-2.9-20.21,8.84-36.84,25.16-47.77,44.18-3.51,5.93-5.72,12.89-6.08,19.84-.21,4.09.8,7.89,2.69,11.11,3.44-2.45,7.64-3.9,12.18-3.9,8.19,0,15.27,4.68,18.76,11.51Z"/>
      <path class="c" d="M188.82,138.93c10.33-2.33,20.65-4.67,30.94-7.17,4.3-1.24,16.07-3.4,8.61-8.69-16.86-10.72-34.2-20.99-51.87-30.44-3.56,4.65-8.71,8.02-14.65,9.28,2.44,8.26,4.99,16.49,7.76,24.65.4-.02.79-.06,1.19-.06,8.23,0,15.24,5.17,18.01,12.43Z"/>
      <path class="c" d="M299.72,172.44c0-1.92.37-3.76,1.01-5.46-10.63-8.56-26.27-18.51-37.18-25.21-3.48,3.39-8.22,5.49-13.46,5.49-6.82,0-12.79-3.55-16.22-8.89-6.25,1.49-12.51,2.96-18.77,4.42-6.46,1.53-17.05,4.29-25.33,6.48-1.06,5.72-4.63,10.56-9.54,13.31,2.39,8.62,5.23,17.45,8.29,26.06,0,0,0,0,.01,0,8.96,0,16.22,7.26,16.22,16.22,0,1.91-.35,3.74-.96,5.44,39.71,11.75,87.86-6.62,103.78-24.43-4.69-2.66-7.86-7.68-7.86-13.45Z"/>
      <path class="c" d="M179.53,191.39c-2.79-8.78-5.5-17.57-8.29-26.35-.14,0-.28.02-.43.02-6.53,0-12.29-3.25-15.78-8.21-7.3,1.59-14.57,3.34-21.82,5.13-6.39,1.56-12.88,2.79-19.31,4.23,0,.21.03.42.03.63,0,11.53-9.27,20.89-20.76,21.05.05.28.09.55.15.83.6,2.56,1.58,5.06,2.85,7.44,4.55,8.49,12.94,14.3,22.33,16.43,6.14,1.4,16.74,3.02,22.93,4.18-2.97,11.43-12.49,18.33-25.92,21.19,32.85,5.53,49.69-7.14,61.17-22.01-2.71-2.9-4.38-6.78-4.38-11.06,0-5.63,2.87-10.59,7.23-13.5Z"/>
      <path class="c" d="M173.59,137.68c-.88-.3-1.8-.5-2.78-.5-2.97,0-5.59,1.51-7.13,3.8-.68,1.01-1.12,2.17-1.33,3.42-.07.45-.14.91-.14,1.38,0,4.75,3.85,8.6,8.6,8.6s8.6-3.85,8.6-8.6c0-1.63-.48-3.13-1.26-4.43-1.03-1.7-2.63-3-4.55-3.66Z"/>
      <path class="c" d="M250.08,119.39c-1.84,0-3.54.59-4.94,1.58-2.21,1.56-3.66,4.11-3.66,7.02,0,3.23,1.8,6.01,4.44,7.48,1.24.69,2.64,1.11,4.15,1.11,1.28,0,2.48-.3,3.57-.8,2.96-1.36,5.03-4.33,5.03-7.8,0-1.95-.68-3.73-1.77-5.18-1.57-2.06-4.03-3.42-6.82-3.42Z"/>
      <path class="c" d="M156.68,88.59c.88,0,1.72-.13,2.54-.32,1.71-.4,3.25-1.21,4.56-2.3,2.45-2.04,4.05-5.08,4.05-8.52,0-6.15-4.99-11.14-11.14-11.14s-11.14,4.99-11.14,11.14,4.99,11.14,11.14,11.14Z"/>
      <path class="c" d="M192.21,198.69c-1.08-.64-2.33-1.04-3.68-1.04-2.46,0-4.63,1.24-5.94,3.12-.81,1.17-1.29,2.58-1.29,4.11,0,1.21.33,2.34.85,3.34,1.21,2.3,3.6,3.89,6.38,3.89,3.8,0,6.88-2.94,7.17-6.66.02-.19.06-.37.06-.57,0-2.64-1.43-4.93-3.55-6.19Z"/>
      <path class="c" d="M101.71,169.92c.34-.97.56-1.99.56-3.08,0-2.84-1.28-5.35-3.27-7.07-1.65-1.42-3.77-2.32-6.11-2.32-1.03,0-2,.21-2.92.51-3.74,1.23-6.46,4.72-6.46,8.88,0,5.18,4.2,9.39,9.39,9.39.94,0,1.82-.18,2.68-.43,2.88-.86,5.17-3.05,6.15-5.88Z"/>
      <path class="c" d="M315.18,165.55c-3.81,0-6.89,3.09-6.89,6.89,0,.66.12,1.29.3,1.9.22.77.56,1.5,1.03,2.13,1.25,1.72,3.27,2.86,5.57,2.86,3.81,0,6.89-3.09,6.89-6.89s-3.09-6.89-6.89-6.89Z"/>
      <path class="c" d="M297,116.48c0,1.76.68,3.36,1.77,4.58,1.26,1.41,3.08,2.31,5.12,2.31,1.48,0,2.84-.48,3.97-1.27,1.76-1.25,2.92-3.29,2.92-5.62,0-3.81-3.09-6.89-6.89-6.89-.62,0-1.21.11-1.79.26-1.72.46-3.17,1.56-4.07,3.05-.64,1.05-1.03,2.26-1.03,3.58Z"/>
    </g>
  </g>
</svg>