<?xml version="1.0" encoding="UTF-8"?>
<svg id="a" data-name="图层 1" xmlns="http://www.w3.org/2000/svg" viewBox="0 0 376.33 376.33">
  <defs>
    <style>
      .b {
        fill: #231916;
      }
    </style>
  </defs>
  <path class="b" d="M353.95,277.22c14.27-26.51,22.38-56.84,22.38-89.06C376.33,84.24,292.08,0,188.16,0S0,84.24,0,188.16c0,32.58,8.28,63.23,22.86,89.95-4.85,6.84-7.37,16.25-1.96,22.32,4.56,5.12,11.71,4.94,18.76,3.27,34.43,44.19,88.15,72.62,148.51,72.62s114.17-28.48,148.6-72.74c4.62,1.44,9.37,2.32,13.75.56,5.12-2.07,8.37-7.61,8.55-13.14.06-1.81-.18-3.61-.65-5.35-.84-3.07-2.42-5.95-4.45-8.44ZM331.75,249.48c7.81.82,10.18,12.37,14.65,19.22-32.48-13.22-67.52-19.79-100.96-9.2-19.85,6.15-38.8,19.34-52.21,40.36,10.55-26.49,30.07-44.74,51.42-52.06,28.49-9.9,58.61-6.6,87.1,1.67ZM172.57,172.71s0,0-.01,0c-3.06-8.61-5.9-17.44-8.29-26.06,4.91-2.75,8.49-7.59,9.54-13.31,8.28-2.19,18.86-4.95,25.33-6.48,6.26-1.46,12.52-2.93,18.77-4.42,3.43,5.34,9.41,8.89,16.22,8.89,5.24,0,9.99-2.1,13.46-5.49,10.91,6.7,26.55,16.65,37.18,25.21-.64,1.7-1.01,3.53-1.01,5.46,0,5.77,3.17,10.8,7.86,13.45-15.92,17.81-64.07,36.18-103.78,24.43.61-1.7.96-3.53.96-5.44,0-8.96-7.26-16.22-16.22-16.22ZM179.8,188.93c0,.19-.04.38-.06.57-.29,3.72-3.37,6.66-7.17,6.66-2.78,0-5.17-1.59-6.38-3.89-.53-1-.85-2.13-.85-3.34,0-1.53.48-2.94,1.29-4.11,1.31-1.88,3.48-3.12,5.94-3.12,1.35,0,2.6.39,3.68,1.04,2.12,1.26,3.55,3.55,3.55,6.19ZM160.73,200c-11.48,14.87-28.32,27.54-61.17,22.01,13.43-2.86,22.96-9.76,25.92-21.19-6.19-1.16-16.79-2.78-22.93-4.18-9.39-2.14-17.78-7.95-22.33-16.43-1.27-2.38-2.25-4.88-2.85-7.44-.07-.28-.1-.55-.15-.83,11.49-.16,20.76-9.52,20.76-21.05,0-.21-.03-.42-.03-.63,6.43-1.44,12.92-2.67,19.31-4.23,7.24-1.79,14.52-3.54,21.82-5.13,3.49,4.96,9.25,8.21,15.78,8.21.14,0,.28-.02.43-.02,2.79,8.77,5.5,17.57,8.29,26.35-4.36,2.91-7.23,7.87-7.23,13.5,0,4.28,1.67,8.17,4.38,11.06ZM76.93,160.28c-5.18,0-9.39-4.2-9.39-9.39,0-4.16,2.72-7.64,6.46-8.88.92-.3,1.9-.51,2.92-.51,2.35,0,4.47.89,6.11,2.32,1.99,1.72,3.27,4.23,3.27,7.07,0,1.08-.22,2.11-.56,3.08-.99,2.83-3.27,5.01-6.15,5.88-.85.26-1.74.43-2.68.43ZM146.26,129.82c0-.47.07-.93.14-1.38.2-1.25.65-2.41,1.33-3.42,1.54-2.29,4.16-3.8,7.13-3.8.98,0,1.9.2,2.78.5,1.92.66,3.52,1.96,4.55,3.66.79,1.3,1.26,2.8,1.26,4.43,0,4.75-3.85,8.6-8.6,8.6s-8.59-3.85-8.59-8.6ZM154.86,110.54c-.4,0-.8.04-1.19.06-2.77-8.16-5.32-16.39-7.76-24.65,5.94-1.25,11.08-4.63,14.65-9.28,17.67,9.45,35.01,19.73,51.87,30.44,7.46,5.29-4.31,7.45-8.61,8.69-10.29,2.5-20.62,4.84-30.94,7.17-2.77-7.26-9.78-12.43-18.01-12.43ZM225.53,112.03c0-2.9,1.45-5.46,3.66-7.02,1.4-.99,3.1-1.58,4.94-1.58,2.79,0,5.25,1.35,6.82,3.42,1.1,1.44,1.77,3.22,1.77,5.18,0,3.47-2.07,6.44-5.03,7.8-1.09.5-2.29.8-3.57.8-1.52,0-2.92-.43-4.15-1.11-2.64-1.47-4.44-4.25-4.44-7.48ZM306.12,156.49c0,3.81-3.09,6.89-6.89,6.89-2.29,0-4.31-1.13-5.57-2.86-.46-.64-.8-1.36-1.03-2.13-.18-.61-.3-1.24-.3-1.9,0-3.81,3.09-6.89,6.89-6.89s6.89,3.09,6.89,6.89ZM299.07,113.88c2.37,6.32,4.28,12.79,4.33,19.6-.03.61-.06,1.25-.08,1.89-.07,2.23-.78,4.2-1.9,5.82-.72-.1-1.45-.17-2.2-.17-4.12,0-7.86,1.62-10.63,4.25-.74-.27-1.47-.59-2.17-1.04-12.23-7.67-26.8-18.91-34.26-25.44.79-2.11,1.24-4.38,1.25-6.76,6.81-1.78,13.66-3.41,20.53-4.96,2.47,5.26,7.8,8.91,13.99,8.91,3.94,0,7.53-1.49,10.26-3.92.32.58.63,1.17.87,1.81ZM286.15,93.9c.57-.16,1.17-.26,1.79-.26,3.81,0,6.89,3.09,6.89,6.89,0,2.32-1.16,4.37-2.92,5.62-1.12.79-2.49,1.27-3.97,1.27-2.04,0-3.86-.9-5.12-2.31-1.09-1.22-1.77-2.81-1.77-4.58,0-1.32.39-2.53,1.03-3.58.91-1.48,2.35-2.58,4.07-3.05ZM219.45,46.72c23,9.18,45.21,21.69,62.68,39.48-5.43,2.2-9.32,7.4-9.62,13.55-6.81,1.8-13.71,3.3-20.62,4.76-2.93-6.92-9.78-11.77-17.77-11.77-5.81,0-11,2.58-14.54,6.64-6.39-3.75-12.77-7.51-19.17-11.25-9.51-5.22-23.21-14.39-35.02-22.83.19-1.24.32-2.51.32-3.81,0-8-3.77-15.11-9.62-19.68,20.93-4.62,43.02-1.89,63.35,4.91ZM140.72,50.35c6.15,0,11.14,4.99,11.14,11.14,0,3.44-1.59,6.48-4.05,8.52-1.31,1.09-2.84,1.9-4.56,2.3-.82.19-1.66.32-2.54.32-6.15,0-11.14-4.99-11.14-11.14s4.99-11.14,11.14-11.14ZM62.05,122.62c.36-6.95,2.57-13.92,6.08-19.84,10.92-19.02,27.55-35.34,47.77-44.18-.11.95-.18,1.92-.18,2.9,0,12.17,8.7,22.29,20.21,24.53.99,3.26,1.97,6.52,2.94,9.79,1.84,5.95,3.68,11.9,5.49,17.85-5.28,3.44-8.78,9.39-8.78,16.16,0,.6.04,1.18.09,1.76-6.26,1.65-12.57,3.07-18.92,4.32-7,1.64-14.01,3.66-21.06,5.43-3.48-6.83-10.57-11.51-18.76-11.51-4.54,0-8.74,1.45-12.18,3.9-1.88-3.22-2.9-7.02-2.69-11.11ZM45.31,249.43c28.14-8.15,57.8-11.35,86.01-2.05,21.96,7.25,42.1,25.97,52.75,53.28-15.12-24.99-38.21-38.36-61.34-43.61-30.85-6.92-62.41-.4-92.11,11.67,4.4-6.95,6.94-18.27,14.69-19.29ZM345.77,295.75c-1.51.3-3.07-.08-4.56-.46-22.49-5.77-45.1-12.73-68.31-12.34-23.21.39-47.78,9.64-59.88,29.45-3.94,6.44-6.62,13.99-12.55,18.65-7.62,5.99-19.77,5.04-26.37-2.05-3.63-3.9-5.5-9.07-8.04-13.76-11.23-20.67-35.81-31.13-59.31-32.16s-46.54,5.74-69.27,11.76c-3.12.83-6.8,1.53-9.27-.54-2.83-2.36-2.18-7.17.34-9.85,2.53-2.68,6.27-3.77,9.82-4.75,24.25-6.63,49.25-12.77,74.28-10.35,25.03,2.43,50.44,14.99,61.89,37.37,3.26,6.37,6.97,14.54,14.12,14.56,7.29.02,10.99-8.4,14.25-14.91,10.85-21.67,35.18-34.03,59.27-36.76,15.84-1.8,31.82-.05,47.41,2.92,7.75,1.48,15.72,2.92,23.25,5.28,4.94,1.55,11.41,2.09,15.12,6.06.96,1.02,1.58,2.35,1.87,3.75.73,3.49-.63,7.43-4.05,8.12Z"/>
</svg>