<?xml version="1.0" encoding="UTF-8"?>
<svg id="a" data-name="图层 1" xmlns="http://www.w3.org/2000/svg" viewBox="0 0 999.8 1000">
  <defs>
    <style>
      .m, .n, .o {
        fill: none;
      }

      .p, .n, .o, .q {
        fill-rule: evenodd;
      }

      .p, .r, .s, .t, .u {
        fill: #fff;
      }

      .n {
        stroke: #fff;
      }

      .n, .t, .u {
        stroke-miterlimit: 10;
      }

      .v, .q {
        fill: #f1f2f2;
      }

      .s {
        font-family: AdobeHeitiStd-Regular, 'AdobeHeitiStd Regular-GBpc-EUC-H';
        font-size: 60.93px;
        letter-spacing: 0em;
      }

      .t, .u {
        stroke: #f1f2f2;
      }

      .u {
        stroke-width: 4px;
      }
    </style>
  </defs>
  <path id="b" data-name="外粗线" class="r" d="M499.9,982.23c265.66,0,482.33-216.67,482.33-482.33S765.56,17.57,499.9,17.57,17.57,234.24,17.57,499.9s216.67,482.33,482.33,482.33h0ZM499.9,999.8C224.56,999.8,0,775.23,0,499.9S224.56,0,499.9,0s499.9,224.56,499.9,499.9-224.56,499.9-499.9,499.9h0Z"/>
  <path id="c" data-name="外细线" class="u" d="M499.9,964.77c254.47,0,462.02-208.74,462.02-464.67S754.37,35.43,499.9,35.43,37.88,244.17,37.88,500.1s207.55,464.67,462.02,464.67h0ZM499.9,968.18c-256.34,0-465.41-210.27-465.41-468.08S243.56,32.02,499.9,32.02s465.41,210.27,465.41,468.08-209.07,468.08-465.41,468.08h0Z"/>
  <circle class="m" cx="499.9" cy="500.1" r="499.9"/>
  <circle class="m" cx="499.9" cy="497.43" r="353.95"/>
  <polygon class="n" points="217.82 362.85 786.38 362.85 500.71 857.66 217.82 362.85 217.82 362.85"/>
  <path class="o" d="M496.03,376.27v10.4l-26.89,7.2v14.45l5.71,3.3v4.68s-78.05,9.58-95.66,94.4l-16,1.6v11.2l-44.01,1.6-4.8,7.2,95.22,164.04,186.45,1.6,97.62-164.04-7.2-8.8h-42.41l-.8-12h-14.4s-16-81.62-99.22-96.82v-7.2h9.6l-2.4-13.6-24.81-8-1.6-8.8-6.4-6.4-8,4h0Z"/>
  <path id="d" data-name="止于至善" class="q" d="M649.79,832.28c2.92.09,10.85,5.45,9.18,9.62-1.32,3.07-4.22,5.78-7.31,6.94.14,1.49.02,1.47-.62,2.46-.56.15-1.12.3-1.67.45-.35-.3-.7-.6-1.05-.89v-.45c-.76-3.28,1.92-4.26,1.67-6.72-.21-2-2.55-8.61-2.5-8.95.42-1.52,1.26-1.66,2.3-2.46h0ZM637.46,848.29c.49.15.97.3,1.46.45-.07,2.69-.14,5.37-.21,8.06-.83.97-1.67,1.94-2.51,2.91-4.9.06-6.88-4.04-8.97-6.94.16-1,.26-.94.62-1.57h.21c2.69.13,3.49,1.56,6.26,1.79.38-2.2,1.96-3.33,3.13-4.7h0ZM658.53,851.18h1.88c.63.6,1.25,1.19,1.88,1.79-.07.6-.14,1.19-.21,1.79-.89,1.84-8.54,5.12-11.06,5.82-.14.3-.28.6-.42.89.27,1.59.96,2.92,1.67,4.03,3.13.21,6.24-2.3,8.35-4.03,1.92.11,3.42,1.24,2.3,3.13-2.64,4.46-9.44,3.36-10.23,10.3.88,2.34,1.57,2.67,2.92,4.25-.62,3.53-13.92,11.71-17.12,15-2.71.05-4.14-.83-5.63-2.02.07-.6.14-1.2.21-1.79.49-.38.97-.75,1.46-1.12,1.67-.46,2.37.48,3.76.89,1.61-4.78,9.31-3.04,9.6-9.4-.71-1.53-1.55-2.33-2.71-3.36-3.39.61-6.08,5.57-10.02,4.03-.42-.3-.84-.6-1.25-.9.04-1.01.15-1.21.42-1.79,2.33-.08,11.24-6.78,12.1-8.51-.27-1.84-1.22-2-2.09-3.13-.63-.07-1.25-.15-1.88-.22-2.21,1.76-4.43,3.65-6.26,5.82-2.41.06-3.61-.62-5.01-1.56-.11-3.3,4.4-3.76,6.47-5.37,1.77-1.39,4.19-2.15,6.05-3.58,3.81-2.93,7.08-7.62,11.27-10.07,1.18-.3,2.36-.6,3.55-.89h0ZM305.43,844.18c.52.13,1.04.27,1.55.4.83,2.33,3.77,3.16,4.17,5.81,1.84,12.45-10.94,13.48-12.68,20.53.15.02,3.97,1.51,4.11,1.55,4.28,1.19,4.19.93,7.68,1.78,5.07,1.24,15.62,7.11,20.39,6.75,3.14-.24,4.57-1.17,7.91-1.07,2.52,1.48,9.82,8.84,7.76,12.73-1.75,3.17-5.97,1.67-8.44.03-7.33-4.87-17.99-8.83-27.08-13.4-5.36-2.69-18.35-.16-20.6-1.5-2.33-1.18-3.29-5.48-1.34-8.78,2.71-2.59,5.42-5.17,8.13-7.76,1.69-1.85,2.08-3.88,3.62-6.15,1.3-1.5,2.6-2.99,3.9-4.48-.21-1.58-.42-3.16-.63-4.73.52-.57,1.03-1.13,1.55-1.7h0ZM365.04,854.83c6,.82,5.69,5.22,6.96,10.05.37,1.41,1.64,2.9.93,4.51-2.99,5.34-13.88.84-13.71-4.41,1.26-1.5,2.52-2.99,3.79-4.49.91-2.63.03-3.69,1.53-5.47.17-.06.33-.13.49-.19h0ZM412.26,902.01c-7.15,1.41-16.55,19.27-24.99,18.01-.41-.14-.82-.29-1.22-.43-.03-.58-.06-1.16-.09-1.74,1.68-2.9,5.83-3.27,8.83-5.37,2.34-1.64,14.53-16.84,15.16-19.26l-.28-1.49c-.41-.14-.81-.29-1.22-.43-6.04,1.14-7.39,3.65-8.82,4.58-.47.31-4.6,2.42-3.92,2.02-2.22,1.29-2.69,1.19-4.24,2.25-1.96,1.34-2.54.98-3.85.73-.45-.08-2,.61-2.46.61-1.11,1.68-1.36,1.55-3.93,2.33-.61-.4-1.1-.63-1.71-1.03-.37-3.02,1.67-6.56,3.72-8.27,1.86-1.55,2.59-1.85,4.19-1.86,2.06,0,2.24-1.24,3.33-1.81,1.78-.93,2.62.65,6.75.15,1.78-.21,3.12-.7,4.6-1.71,1.43-.48,1.92-.08,2.72-.18,5.6-.68,8.8-7.2,10.84-10.56-.49-2.91-1.08-12.46-.35-14.2,0-.19.09-.92-.33-.93-2.05-.04-3.75-1.76-3.47-2.32.03-4.78,8.95-2.04,10.15.53,3.06,6.58-1.01,12.38-.8,17.91,1.33,1.46,2.41,1.93,2.93,4.72-.48,1.78-1.1,2.89-3.73,3.32.74.98,1.23,2.53,2.76,2.56,2.83-1.94,13.81-17.78,13.37-21.56-1.97-2.15-1.85-2.81-.5-5.17l.22-.04c4.38-.69,11.56,5.79,9.45,10.32-3.04,6.52-7.59,12.95-13.15,17.79-2.91,2.53-8.31,3.18-9.84,7.31-1.03,2.78-.88,5.11-1.5,7.95-.35,1.61-2.21,3.52-2.52,4.92-.68,3.12-.15,1.34-.71,5.94-.1.85-.23,2.28-.12,2.84.14.61.02.36.12.94.29,4.1-.59,7.56-3.51,9.58-4.14,2.87-8.23-.78-9.91-2.2.67.57-.37-.47-.98-1.06-.14-.34-.4-.95-.54-1.29.25-.92.46-.79,1.22-1.4,1.93-1.06,4.31-.57,5.77-2.16,1.63-1.79,3.3-16.91,2.53-20.87h0ZM669.59,865.04c1.54,0,1.86.31,2.71.9.07.75.14,1.49.21,2.24-1.82,3.83-8.01,3.65-10.65,8.28-1.39-.08-2.78-.15-4.18-.23-.28-.15-.55-.3-.84-.45.07-.45.14-.9.21-1.34,1.14-2.64,9.48-7.54,12.52-9.4h0ZM328.45,852.01c.87.18,1.74.35,2.6.53,1.37,1.6,1.7,1.98,3.22,3.77,3.84,1.95,6.07-.88,9.01,1.7l-.03.24c-.22,1.35-.4,1.39-.95,2.1-3.94,1.3-5.48,6.54-9.25,7.34-3.46.74-8.98-8.61-7.07-13.01.82-.89,1.64-1.79,2.46-2.68h0ZM580.01,860.62c2.43.13,3.64,1.23,4.66,2.68-.08.59-.16,1.19-.24,1.79-4.26,2.19-23.51,5.08-24.94,7.6.62,1.71,1.25,3.43,1.86,5.14-5.78,6.85-17.49,9.86-20.74,18.77.08.08.15.15.23.22,6.33.05,10.12-2.93,15.85-3.8.08.07.16.15.23.22v1.12c-4.94,3.53-16.29,7.73-23.54,8.49-.69-.84-1.58-1.24-2.56-1.79-.32-1.39-.98-3.67-.47-4.91,1.16-2.18,4.4-2.12,6.29-3.57,3.89-2.99,11.99-9.02,13.99-13.41-.13-1.11-.2-1.29-.93-1.79-2.03-1.22-4.63-.18-6.99,0-3.84.29-6.79-1.32-9.32-3.13.05-1.01.17-1.21.47-1.79,5.43-.62,9.61-1.99,14.22-2.9h3.73c1.58-.37,2.34-1.34,4.43-1.56.75-.17.88.08,1.33-.08.25-.09.44-.12.66-.3,4.16-3.5,16.93-4.78,21.79-6.99h0ZM688.99,870.52c3.03-.07,4.62,1.8,5.43,4.03v1.57c-.97,1.53-1.76,2.86-4.17,2.91-5.85-2.27-14.36,2.82-16.91,1.79v-1.12c3.34-5.23,11.12-5.29,15.66-9.18h0ZM664.16,878.15c2.1-.18,3.65.27,3.34,2.02.21,1.49.42,2.98.63,4.47-.92,2.81-4.15,5.54-6.68,6.04-.07.75-.14,1.49-.21,2.24-.42-.15-.83-.3-1.25-.45-.07-.15-.14-.3-.21-.45.18-4.18,3.1-6.7,3.96-10.07.47-1.82-.3-2.48.42-3.81h0ZM652.46,890.46c.42.07.83.15,1.25.22.42.38.83.75,1.25,1.12-.07.6-.14,1.19-.21,1.79-2.28.63-2.32,4.44-4.38,5.37-1.18-.08-2.37-.15-3.55-.23-.76.23-1.47.91-2.71,1.12.79,2.14-.23,3.09-1.46,4.25-1.53,0-5.49-1.11-5.84-.9-.27.16-.69,1.93-1.04,2.24-1.53,1.12-3.06,2.24-4.59,3.36h-1.67c-4.37,3.11-9.08,11.67-16.28,6.49-.07-.52-.14-1.05-.21-1.57,3.49-3.88,3.74-1.06,7.51-1.56,1.3-3.98,4.12-3.27,7.51-4.93,6.96-3.39,11.48-10.37,17.95-14.1.62.23,1.25.45,1.88.67,1.18-1.49,3.37-1.84,4.59-3.36h0ZM675.42,890.22c.76.08,1.53.15,2.29.23.49.06.69.53,1.51.51.57-.01,1.12-.04,2.03.61v7.16c-.69.82-1.39,1.64-2.09,2.46v7.16c-1.45,3.65-3.12,1.33-4.38,2.01-1.66.9-4.31,3.26-6.26,3.81-1.25.08-2.5.15-3.76.23-2.01.73-2.51,2.7-5.01,2.91-3.82-2.14-5.89-7.95-8.56-11.42-1.15-1.49-3.31-.66-4.59-2.02,0-1.42.18-1.7.63-2.46,10.9-.27,9.44,4.85,14.82,10.52,4.61-.04,9.28-3.98,11.69-6.72-.21-.97-.42-1.94-.63-2.91-.23-2.25.79-3.76.21-6.04-.55-.15-1.11-.3-1.67-.45-2.12.97-3.31,2.96-5.42,3.58-.07-.07-.14-.15-.21-.23-.22-2.25-.1-2.92.83-4.25,3.12-1.08,1.67-2.23,3.55-3.58,1.67-.37,3.34-.75,5.01-1.12h0ZM570.77,885.07c9.07-.05,13.42.7,18.18,5.58-.08.6-.16,1.19-.23,1.79-.47.94-.92,1.11-1.87,1.57-4.34-.74-7.63-4.03-11.42-5.14-2.14-.62-4.89-.19-6.53-1.12v-.22c.19-1.68.78-1.72,1.86-2.46h0ZM459.19,880.01c4.8-1.08,12.5,1.74,11.01,7.61-.2.99-.36,1.24-1.27,1.77-2.56,1.66-9.21-.15-14.28-.35-4.76-.19-9.35.81-12.6-1.69l-.16-.85c.42-.59.85-1.18,1.27-1.77,2.3-.38,13.9-1.54,15.12-3.46.3-.42.6-.85.91-1.27h0ZM565.1,897.55c5.13.39,3.04,6.49,6.29,8.49,2.77,2.2,5.74-1.55,8.86-.89.37.08.61-.06.95-.02.15-.08.61-.15.76-.22.22-.13.44-.17.62-.21.62.07,1.25.15,1.86.22.54.45,1.09.89,1.63,1.34-.04,1.54-.32,1.62-.93,2.46-4.83,1.79-13.65,2.62-14.69,8.04-.41,2.14,0,4.41-.7,6.7-.6,1.99-2.16,2.84-2.33,5.36.31.52.62,1.04.93,1.56,8.54,2.28,20.18-9.42,28.91-.67-.08.59-.15,1.19-.23,1.79-.47.3-.93.6-1.4.89-1.29.63-3.92.59-5.13,0-.34-.34-.74-.61-1.16-.55-4.38.64-6.58.08-10.96.1-1,0-3.04,1.69-4.43,2.01-3,.7-6.07-.03-9.09.67-2.17.97-4.35,1.94-6.52,2.91-4.66,1.72-10.62,3.37-14.92,4.69-4.07,1.25-8.01-1.29-9.56-3.8.08-.22.15-.45.23-.67.42-.92.92-1.38,1.86-1.79,2.75-1.33,5.23,1.16,8.16.89,5.72-.52,12.27-2.7,16.32-5.14.91-2.74,1.54-11.07-.7-12.95-4.48-2.07-11.98,2.37-17.49-1.12.07-1.25.24-1.3.7-2.01,5.44-1.06,16.4-2.02,19.11-6.48,2.26-3.7,0-8.74,3.03-11.62h0ZM440.41,899.5c5-1.11,11.69.85,12.97,4.62,1.16,3.43-7.13,12.61-10.34,12.01-3.34-.97.76-6.21,1.54-7.74-1.51-2.7-3.36-2.77-5.4-4.48-.35-1.46-.65-2.2-.37-3.22.54-.39,1.07-.78,1.61-1.18h0ZM437.95,921.97c.6-.04,1.21-.08,1.81-.12.97,1.52,2.45,3.26,3.81,4.56,2.04,1.93,8.44,1.36,7.38,6.53-.25,1.24-.91,2.29-1.96,2.99-1.38.71-4.11,1.8-5.48,1.24-1.67-.68-.87-2.35-1.81-3.61-2.3-3.06-8.25-6.56-3.75-11.59h0Z"/>
  <path id="e" data-name="大礼堂轮廓" class="r" d="M497.66,382.29l-.06,10.51-4.34.47-24.12,8.92v5.27l5.45.11-.2,14.37-3,.41c-2.53.26-69.63,4.96-93.05,79.56l-.78,3.57-32.21-.62-.1,33.91-30.18.02,2.18,3.63,89.81,151.49,92.4-.16,90.72.53,95.33-154.42-5.17-1.29-25.33.1v-32.72l-31.95-.7-.54-2.4c-21.48-72.74-91.28-80.54-91.5-80.57l-4.26-.31-.31-14.73,5.27.08-.23-4.42-23.79-9.17-4.28-.84.18-20.06-3.21-5.27-2.73,5.17v9.58ZM490.88,379.58l.1-9.3,1.65-.88,7.75-5.17,5.89,3.83,3.36,1.76-.08,8.38-.09,9.33,15.35,6.55,13.54,7.25-.09,3.72.08,8.33-6.76.02v3.25c20.58,3,71.11,11.9,96.13,83.45h34.27l-.16,31.6,23.57.05,9.23.08,1.71,2.64-1.26,2.29-1.54,2.58-97.26,167.43-1.05,1.77-2.06.02-93.67.73h-.06l-93.67-.73-2.06-.02-1.05-1.77-97.26-167.43-1.54-2.58,2.22-2.01,4.43-1.68,4.43.2h24.16s0-32.77,0-32.77l33.96-.4c21.71-72.95,80.62-78.98,95.53-82.05l.1-4.86-6.31-.16-.16-11.24v-2.64l1.59-.9,26.71-10.07.32-7.41.03-1.2ZM463.83,398.26l27.14-10.42-.27,1.74"/>
  <path id="f" data-name="内三角" class="t" d="M819.34,347.87l-13.87,23.79-291.5,500.06-13.69,23.48-13.69-23.48L195.09,371.65l-13.87-23.79h638.12ZM780.6,373.54l-558.2-1.27,278.17,483.69,268.89-463.14,11.13-19.28Z"/>
  <path class="p" d="M202.94,582.85l-.08,45.6h-6.75l.13-36.3-11.45,8.23v-6.36c7.68-5.76,8.91-6.74,13.23-11.1h4.46l.47-.07ZM214.82,617.81h5.3c.48,5.15,2.98,7.73,7.49,7.73,5.47.35,8.93-5.59,10.38-17.85h-.25c-1.77,3.55-5.07,5.41-9.9,5.6-8.68-.37-13.19-5.52-13.51-15.47.49-10.48,5.15-15.99,14-16.52,9.82.18,14.89,7.55,15.21,22.12-.65,17.41-5.95,26.29-15.93,26.64-8.04-.35-12.31-4.43-12.79-12.25h0ZM228.81,607.95c5.31-.18,8.04-3.82,8.21-10.93-.32-6.57-3.22-9.95-8.69-10.13-5.47.37-8.28,3.91-8.44,10.67-.17,7.1,2.81,10.57,8.93,10.39h0ZM269.99,606.09c-.16-12.61-3.28-19.01-9.34-19.19-6.23,0-9.26,6.4-9.09,19.19,0,12.79,3.03,19.18,9.09,19.18s9.18-6.39,9.34-19.18h0ZM275.98,606.09c-.5,15.63-5.61,23.62-15.35,23.98-10.07-.35-15.18-8.34-15.35-23.98.17-16.17,5.29-24.43,15.35-24.79,9.74.35,14.86,8.62,15.35,24.79h0ZM284.05,596.19l-6.41-.16c.36-11.11,5.42-14.7,15.46-15.04,8.58.7,13.07,5.71,13.72,14.4.32,6.61-4.06,10.74-10.83,16.52l-4.29,3.67c-4.19,3.57-4.68,3.88-5.17,7.19l20.29.02v5.47h-29.28c.36-8.7,3.8-11.48,10.34-17.12l6.2-5.12c4.95-3.83,7.24-6.54,6.91-10.89-.48-5.39-2.35-7.54-7.69-7.72-5.67,0-8.74.88-9.25,8.79h0Z"/>
  <path id="g" data-name="东南大学" class="p" d="M618.22,268.51c-.12-1.2-.15-1.6-.23-4.89-.06-2.18-.01-3.51-.3-5.57-.83-6.01-.4-4.21-1.72-8.75-.18-.6-.92-5.13-.98-5.76-.21-2.02.7-3.55,1.5-3.98,1.24-.67,2.91,1.13,3.64,2.08,2.09,2.72,3.02,5.26,3.31,6.89.21,1.21.87,6.88.88,6.98.2,2.9.54,5.93.83,8.63.31,2.89-.57,3.31.88,4.98.71.82,1.69.45,1.99.45,1.9-.42,2.24-2.9,1.97-5.03-.75-6.1-1.75-7.06-2.4-10.79-.47-2.64-.39-2.98-.58-4.29-.15-1.03-.47-2.54-.71-7.55-.16-3.21-.04-3.29.56-5.91.47-2.06,1.28-3.31,2.18-3.66,2.43-.95,3.97-.58,4.1.48.71,5.94.81,6.5.92,10.53.11,4.12.53,4.96.63,7.35.11,2.47.83,6.09.97,9.69.16,4.19.99,9.52,4,5.51,1.08-1.44.15-3.16.38-5.05.27-2.18-.08-2.61.19-5,.46-4.06-.16-5.2.16-10.7.1-1.71,1.53-2.65,1.47-3.04-.1-.72-.09-.52-1.14-3.26-1.09-2.84.67-14.57.83-19.92.06-1.94-.36-5.86,1.36-7.79,1.02-1.15,2.71-.48,4.39.37l1.03.87c.12,1.63-2.95,5.08,5.04,1.36,1.63-.76,4.77-2.68,7.17-1.67,1.99.83.62,4.97.62,5.04-.07.55-5.15,2.2-7.02,3.35-3.95,2.43-9.5.69-9.07,10.95-.05,1.03-.04,3.22-.12,5.35-.06,1.56,2.57-1.16,4.15-1.16.79,0,2.26,1.42,2.38,1.51.56.38,1.63,1.47,1.26,1.07.51.56.85,1.01.89,1.34.21,1.55.25,5.08,2.4,4.28,3-1.11,1.57-.57,3.57-1.47.96-.43,3.26.04,4.85-.27,2.06-.4,2.64-3.94,2.75-5.78.21-3.41-.05-4.31-1.32-5.35-1.77-1.46-4.47-1.01-7.95,0-4.15,1.2-5.42,4.96-7.58,4.81-.17-.01-1.69-.34-1.86-.37-.08-.62.04-.79.47-1.71,2.45-5.24,18.21-14.71,23.82-7.09,3.06,4.16,1.97,8.34,1.16,12.12-.78,3.62-1.95,6.35-2.64,9.05-.6,2.37-.38,2.53-.83,5.12-.42,2.44-.35,1.75-.78,3.85-.3,1.48-1.49,5.17-.41,5.63,2.44.99,6.34-.02,8.45-.5,3.86-.89,10.94,1.17,12.54,2.91,1.9,2.07-2.8,7.15-4.45,8.06-1.7.35-6.78,4.82-8.48,5.17-3.63,2.08-3.51,1.85-7.13,3.93-3.95,1.48-9.38-1.5-6.51,1.64,1.6,1.75.9,3.62-.32,6.68-1.22.46-3.77,2.02-5.06,2.69-1.39,1.77-1.43,1.68-1.86,2.58-1.46,3.07-5.4,7.6-2.28,7.5,7.72-.23,6.1,7.39,6.1,7.39,0,0,2.78-.75,6.1-.36,3.16.37,5.84-.32,7.55.1,3.56.88,6.75,4.94,8.14,7.77.53,1.08.15,2.14-.89,2.48-1.16.39-2.46,1.01-3.42.35-2.19-1.49-2.55-2.83-4.45-3.15-4.39-.76-12.91-.88-12.91-.88,0,0-.47,4.96-.54,5.2-.75,2.34-3.46,6.43-4.58,8.03-2.09,2.99-6.92,5.27-9.34,5.85-11.24,2.71-15.88-5.34-13.93-17.01.67-4.03,3.75-6.48,7.55-7.5,3.2-.86,9.13-.15,8.94-3.15-.16-2.53-.61-1.14-2.02-2.79-3.46-4.06-.56-5.49,1.55-7.66,1.34-1.38,1.31-1.74,1.94-2.75.47-.75,1.09-2.27,1.2-3.02.17-1.14-1.55-.66-3.3-.45-4.25.52-4.56,2.17-7.68,1.27-1.34-.38-2.42-1.35-1.78-2.3,1.34-2.02,1.17-2.24,2.66-2.95,1.88-.9,2.46-1.24,4.9-2.6,3.5-1.95,4.72-2.6,6.67-2.75,1.42.53,3.36,1.18,5.29.83,3.61-.65,3.39-1.01,6.65-3.55,2.71-2.11,6.78-5.23,8.38-6.88.32-.33,1.91-1.32,3.74-3.34.38-.42.45-.71.43-1.55,0-.37.08-.66-.14-1.12s-1.1-.58-2.35-.14c-.81.29-1.28.45-2.11.86-.14.07-2.24,1.17-2.38,1.24-.96.5-1.39.53-2.32,1-2.27,1.13-1.76.96-4.37,1.43-.52.09-2.09.82-3.79,1.39-1.43.47-2.12,2.02-2.89.32-.31-.68-.58-1.32-.41-2.23s.37-.76.47-1.75c.03-.3-.04-.87-.34-.95-.49-.13.45.14-1.1-.27-1.09-.29-2.87.93-2.67.79,1.49-1.02-.72.74-2.51.93-.94.1-1.47.99-2.25,1.73-1.2,1.14-2.13,1.67-3.33,1.84-1.8.26-1.86-.93-3.88-1.47-1.98-.53-4.08.57-5.42,1.78-.8.72-.52.62-2.38,1.29-.56.2-2.02.47-4.25-.32-1.44-.51-.46-.84-3.4-.84-1.6,0-2.06.6-4.55-.29-.98-.35-1.75-1.16-2.14-2M333.05,216.58c3.79-.07,7.17,2.33,8.22,4.92,1.16,2.87.78,3.91.78,5.82,0,2.13-.12,4.33-.23,5.27-.18,1.56-.23,2.13,0,4.38.17,1.64,2.38,1.94,3.8,3.24s1.72,3.9.98,5.84c-.69,1.2-1.82,1.94-2.95,2.38-1.63.63-3.16.95-2.62,3.86.4.31.81.62,1.21.92,3,.75,6.15-.35,8.44-.8,4.96-.98,7.92-1.42,12.35-1.73,2.08-.4,5.08-.7,7.5-.9,2.62,1.39,6.1,7.58,4.08,12.15-3.11,6.93-14.87,11.31-19.9,17.06-1.58,1.81-3.22,3.19-4.5,4.76-1.94,2.37-3.82,3.54-6.28,5.43-1.81,1.38-3.67,2.17-5.06,3.98-1.05.69-1.27,1.55-2.53,2.95-1.45,1.6-1.34,11.29-1.27,14.06.1,3.88-.16,7.77.12,11.02.06.68.7,1.9,1.24,3.76.18.61.32,2.96.31,3.8,0,0,.4,2.87-.22,4.73-.51,1.53-3.08,2.34-4.29,3.41-.89-.08-2.47-.18-3.36-.26-2.22-1.01-4.49-3.14-6.31-4.5-3.13-2.35-6.13-1.83-6.72-6.1-.25-1.77-.01-1.24.49-1.93.1-.14,2.27.06,2.43-.02,2.8.03,4.72.27,7.26.13,2.9-.15,2.18-2.57,2.49-4.95.25-1.91,0-2.48-.1-5.43-.07-1.89.14-3.69-1.15-5.07h-.24c-6.08,4.42-18.3,16.54-28.77,14.75-.08-.77-.16-1.54-.24-2.3,4.65-2.33,7.95-5.74,11.61-8.99,7.84-6.96,9.53-8.43,17.09-17.13.09-.11.13-.59.11-1.62-.01-.47.14-1.9-.05-1.96-1.01-.35-.78-.17-1.55-.13-2.02.11-1.14.09-4.01.34-5.68.48-13.26,3.8-15.95.1-1.37-1.89-1.09-4.52-1.5-6.82-.87-1.68-1.52-4.62-2.84-6.36-1.1-1.44-4.19-3.68-4.84-5.13-.73-1.62.75-2.6,1.21-3.23,5.32-1.54,7.59,1.2,11.17,2.83,1.52.7,3.88.02,5.66-.08,2.91-.16,5.23-.33,6.81-.63,5.02-.95,7.56-1.63,7.46-4.41-.02-.65.11-.35.08-2.13,0-.52-.03-1.2-.19-1.47-.09-.15-1.22-.31-1.71-.12-2.45.98-3.32,1.24-5.39,1.4-5.78.43-10.06,1.05-13.84-2.25-1.2-1.05-.62-2.95-.54-3.57.16-.23,2.44-.45,2.71-.5,7.41-1.54,5.26-.92,9.15-1.71,1.66-.34,9.78.18,9.72-2.89-.04-1.86.42-4.22-.53-5-2.06-1.7-2.47-.31-5.12-.24-3.55.09-7.45.11-11.17-4.35,0-1.69.3-1.87.97-2.77,4.86-.73,9.41-1.01,12.26-1.42,2.15-.32,3.63-.42,3.72-2.02.21-3.8.09-7.21.16-8.92.09-2.47,0-1.9-3.8-7.29-.27-.38-.25-2.48-.25-2.94.35-.47,1.03-1.47,1.56-1.79,2.27-1.26,4.89-.17,6.9-1.43h0ZM532.08,241.82c.01-.46.1-9.08.21-9.41.3-.94.3-1.9.65-2.26l.38-.43c2.92-1.41,4.21-.17,4.99,1.24.74,2.09.54,9.39.49,11.06-.17,5.27-.1,5.53-.21,9.41-.06,2.4.41,8.3.47,10.24.06,2,.2,3.53.41,4.39.26,1.08.64,2.1,2.38,2.43,3.88.72,6.44.03,12.87-2.64,5.12-2.12,6.99-2.09,10.08-4.65,2.12-1.76,2.22-4.13,3.48-4.3,2.15-.3,2.68.79,3.39.79,1.21,1.57,4.3,9.27,3.46,11.48q-.54,1.16-2.6,1.66c-5.07,1.22-7.4,1.45-12.03,2.99-1.9.63-3.15.91-5.12,1.71-2.99,1.21-3.34,1.55-6.81,2.47-5.61,1.49-13.11,1.92-13.19,7.56-.08,5.53.16,4.34-.67,8.99-.38,2.14-.89,4.74-1.75,7.23-.76,2.21-.88,4-1.97,6.06-3.11,5.85-3.85,6.8-9.51,8.58-5.8,1.83-13.17,3.26-16.97.92-.28-.97-.41-1.5-.22-2.61,2.42-2.97,6.74-4.37,9.9-6.14,3.41-1.92,4.89-2.82,7.73-7.16,1.52-2.33,4.2-8.21,4.91-10.91.48-1.84,1.26-4.56,1.34-6.15.1-1.92.25-1.52-.04-3.59-3.46-1.73-8.25-1.55-12.15-3.3-2.07-.93-4.78-3.2-5.97-5.27-1.94-3.39-.93-.18-2.3,1.81-.56.81-1.16-.74-2.04-1.5s-2.97-.9-3.26-1.6-.72-2.27-.16-2.74c1.24-1.03,2.82-1.14,4.11.31,1.57,1.76,2.86,2.78,4.89,1.4,1.14-.78,4.19-.52,5.2-.5,1.63.03,4.84.21,6.28.16,1.45-.06,3.04.19,4.5.09,2.7-.18,2.86.35,3.59-1.73,1.53-4.37,1-5.62.91-10.5M470.15,292.43c.48-1.66,1.14-6.31,1.55-8.74.4-2.37.69-6.07.7-9.33.01-3.86-1.02-4.74-2.52-4.78-6.9-.19-13.01-1.05-19.09.14-3.01.59-3.38.61-4.68.92-.26.06-.96.65-.95.92.08,1.88.1,1.18.12,2.38.01.59.07,3.81-.45,4.08-1.24.64-4.98,2.38-6.4,4.71-.62,1.01-1.2,1.28-.54,2.52.3.57,2.41-.04,3.61-.78,2.86-1.75,4.12-3.08,7.69-3.22.92.66,1.83,1.33,2.75,1.99-.08.37-.15.74-.23,1.11-1.54,2.56-9.94,2.58-13.01,5.6.08.66.04,1.63,0,3.01-.03,1.63-.75,2.88.78,3.49,2.19-.29,2.51-1.59,4.89-1.82.69.37,2.14.17,2.83.54q.31.96-.23,2.48c-.77,2.18-1.07,2.1-1.78,2.44-2.25,1.09-4.36.51-6.47,1.55-.93,4.98.82,11.54-1.38,16.79-1.6,3.83-1.16,4.05-4.26,7.48-1.28,1.42-4,3.74-5.06,3.53-.8-.16-3.19-.98-3.19-3.05,0-2.26.88-1.04,2.02-2.12,1.72-1.64,1.96-2.47,3.07-5.09.4-.94.51-1.7,1.02-3.28.36-1.13.92-2.66.84-3.84.25-1.03-.01-1.34.09-3.09.1-1.81-.74-3.53-2.21-3.18-1.95.47-3.3,1.24-6.51,1.4-2.14.1-4.9.59-6.05-.93-.01-1.43.06-1.34.54-2.13,3.99-.95,7.06-1.88,10.51-2.83,1.57-.43,2.38-.34,3.29-1.24.68-.68.31-1.27.28-2.1-.08-2.51-.19-4.99-.19-4.99,0,0-4.69,1.74-7.21,3.09-1.98,1.06-2.95,1.53-5.27-.08-1.4-.97-1.22-1.64-.93-2.33.62-1.47.23-1.78.04-4.11-.41-4.87-3.19-4.37-5.39-6.4-.43-.4-1.28-1.16-1.12-2.35.4-3.05,4.61-4.68,6.18-6.73,1.25-1.63,1.67-2.31,2.85-4.56.65-1.24,1.33-2.87,1.9-4.15,1.35-3.01,4.42-8.22,4.03-12.95-.11-1.34-1.57-2.99-2.56-3.22-2.56-.6-3.71-.86-5.7-.19-2.11.71-3.58,1.31-5.85-.58-1.86-1.55-2.76-3.31-1.34-4.18,2.22-.79,6.41-.13,8.56-.13,3.69,0,4.88-.19,7.56-.1,1.1.04.95-.37.99-1.2.14-2.77-.26-7.78.08-10.31.08-.57-.26-1.62.27-1.96.6-.39,2.15-1.24,2.87-.96,2.41.92,6.98,4.43,4.73,2.67-.17-.13,1.63,1.01,1.45,2.35-.44,3.15-1.34,3.32-1.19,6,.13,2.31.59,2.92,4.42,1.81,3.15-.91,6.9-3.03,9.65-3.28,1.2.59,1.76,1.7,1.36,2.99-1.2,3.8-3.81,4.17-7.48,5.25-2.14.63-4.02.88-5.89,1.54-2.46.87-2.12.5-3.22,1.55-2.4,2.29-2.24,4.11-2.97,6.36-.92,2.8-1.87,4.8-2.84,7.29-.45,1.15-1.07,3.38-1.57,4.61-.6,1.45-2.1,5.14-2.64,5.96-1.1,1.64-.7,1.16-1.71,2.89-.4.69-.38,2.3.41,2.22,2.17-.23,2.43,0,4.05-1.09,1.3-.87,4.4-3.17,4.9-2.44,1.2,1.73-1.35,3.86-2.64,5.51-1.22,1.56-3.26,3.18-3.68,3.68-.28.34-1.06,3.92,1,2.97l4.55-3.87c3.22-2.07,6.8-8.73,5.86-11.24-.82-1.65-1.1-1.94-1.18-3.63-.02-.52.49-1.51,1.22-2.13.64-.54,1.84-.95,2-1.03,10.96-2.06,12.86-1.13,22.8-3.17,1.68,0,4.74-.61,6.41-.83,5.42-.72,8.34-1.88,10.03,3.77,2.22,7.44,2.29,9.98,1.55,15.92-.38,3.08-1.13,6.28-2.03,9.25-.87,2.86-1.23,4.7-1.79,6.51-.59,1.91-1.09,3.72-2.07,6.45-.79,2.2-1.89,5.43-3.26,8.44-2.05,4.53-4.03,10.15-10.03,10.39-5.08-2.43-9.42-6.7-12.78-10.89-.47-.58-.78-2.18.17-2.33,3-.47,10.28,1.52,13.07-.35s3.66-4.17,5.2-8.26M641.47,242.78c1.47,1.21,2.07,1.63,2.07,2.4,0,4.36-.17,10.91-.47,14.37-.13,1.51,3.37-1.13,3.64-1.91.57-1.64,1.69-2.82,1.84-5.79.11-2.12.05-3.26.05-4.76,0-1.59.11-2.68-1.14-2.74l-2.43-.72-3.57-.85ZM664.71,245.77c-1.45.89-1.08,1.3-2.67,2.5-.71.54-2.96,2.32-4.31,3.01-1.26.64-1.13.18-1.74-.66-1.64-.55-2.25-.29-2.33,1.51-.1,2.45-.27,2.64-.23,4.44.04,1.63-.11,1.88-.02,3.59.02.31.21,3.66.47,3.84,1.67,1.11,3.71.3,5.3.1,5.8-.72,3.35-4.63.75-4.91-2.79-.3-3.1-.47-3-3.41,0-.07-.43-2.35.03-3.12.83-1.41.62-1.29,2.17-2.23.82-.5,2.27-.89,2.74-.21.38.56.07,1.88.1,2.82.05,1.47-.05,4.47,1.32,3.26,1.01-.9,1.89-2.86,2.84-5.38.83-2.18,1.12-2.78,1-4.54-.06-.85-.64-.9-1.01-.97l-1.42.37ZM348.77,260.48c-4.35.58-11.17-1.6-10.55,5.58.22,2.51,1.74,1.82,3.26,1.76,2.39-.1,4.75-.51,5.82.49.54.51.92,1.71.93,2.82.02,1.32-1.13,2.71-1.47,3.05-.59.59-1.43.2-2.27.21-3.12.04-6.35-.78-6.15,1.86.24,3.18.16,7.02,4.02,4.03,3.82-2.96,14.76-12.22,17.3-16.44,1.34-2.22,1.22-4.12.65-4.45-1.48-.73-3.46-.36-5.94.16l-5.58.93ZM605.03,270.51c2.38-.88,4.29,3.71,4.55,5.43.7,4.58-.34,7.77-2.62,13.84-1.36,3.62-10.76,6.58-11.03,3.48-.72-8.27,3.69-8.78,5.36-13.78.95-2.84,1.02-4.79,2.08-6.9l1.65-2.07ZM324.14,277.64c-6.13.58-8.18-.89-9.85,1.4-.81,1.12-1.32,2.66-1.28,3.64.07,1.43-.2,3.33,1.71,3.53,3.84.41,5.51.31,10.04-.16,2.34-.24,3.22-1.2,3.62-3.7.19-1.15-.02-1.27.03-3.22,0-.36.19-1.39-.4-1.46l-3.88-.04ZM399.2,278.54c.77,0,1.6-.32,2.3,0,1.65.76,3.51,4.38,3.82,6.24.92,5.53.23,7.07.08,9.69-.17,2.9.03,3.5.23,5.14.39,3.15,2.06,4.63,2.01,6.31-.09,3.04.53,2.68-1.9,6.66-.83,1.36-2.42-.16-3-1.03q-1.32-2-2.58-4.02c-1.73-2.77-4.71-3.69-3.47-9.57,1.24-5.88,1.26-2,1.24-6.46-.02-5.16-1.68-9.63,1.27-12.96h0ZM552.12,295.6c.79-.33,2.97.29,4.57,1.12,1.46.75,1.85,1.44,3.41,2.48,1.05.7,2.01,1.22,3.15,1.76,1.65.78,2.46,1.5,3.1,2.33,1.75,1.22,2.88,2.4,4.14,4.06,1.34,1.76,2.57,3.88,3.57,6.05.74,1.6,2.25,5.61,1.24,8.76-.17.52-2.13,1.99-2.49,2.41-.71-.07-1.43-.14-2.14-.21-3.76-1.78-8.55-4.06-10.49-7.63-1.57-2.88-2.42-7.43-3.88-11.71M348.95,304.86c6.81,1.14,11.12,2.93,16.26,4.37,5.68,1.59,8.18,2.57,8.48,6.62.23,3.06-.51,4.83-2.71,8.63-1.98,3.42-3.77,2.82-5.18,2.27-.83-.33-1.27-.9-1.88-1.69-1.55-2.02-1.5-5.51-1.63-6.09-.78-3.49-8.75-6.04-13.19-8.73-2.38-1.44-5.06-2.43-3.47-5.05.14-.07.57-.58,2.21-.49l1.11.16ZM648.58,316.78c-1.96-.04-3.08-.41-5.92.1-2.9.53-3.7,1.5-5.94,3.52-3.83,3.43.69,13.49,6.67,11.63,2.76-.86,6.05-3.21,6.72-7.86.22-1.56.08-5.2.08-7.31l-1.6-.08Z"/>
  <path id="h" data-name="大礼堂正面" class="p" d="M405.02,595.62h4.48v-62.23h182.33v62.23l7.72.05-.05,8.42-198.51-.15.08-8.33h3.96ZM401.71,611.56h198.1v16.12h-198.1v-16.12h0ZM592.98,635.11v45.07h-21.48l.08-30.49-24.19-.06v30.55h-34.74v-30.51s-23.26.34-23.26.34l.16,30.18h-35.98v-30.48s-23.11.46-23.11.46l.16,30.02h-21.66v-45.07h184.04ZM592.16,503.19l-91.09-30.58-91.09,30.58h182.18ZM481.87,546.29v48.66h36.09v-48.66h-36.09ZM465.35,594.95v-48.66h-36.09v48.66h36.09ZM535.72,546.29v48.66h36.09v-48.66h-36.09ZM409.98,511.23h182.18v13.56h-182.18v-13.56h0Z"/>
  <circle id="i" data-name="左点" class="v" cx="206.67" cy="779.05" r="12.56"/>
  <g id="j" data-name="southeast">
    <path class="r" d="M83.91,651.04l21.36-9.26.79,1.96c-5.04,3.11-8.47,7.14-10.3,12.09-1.83,4.94-1.89,9.52-.19,13.72,1.31,3.25,3.22,5.46,5.72,6.65,2.5,1.19,4.88,1.33,7.14.41,1.43-.58,2.57-1.43,3.41-2.55,1.12-1.53,2-3.61,2.64-6.24.44-1.92.91-6.13,1.39-12.62.66-9.08,2.1-15.61,4.34-19.59,2.25-3.95,5.51-6.79,9.78-8.51,5.41-2.19,10.92-1.97,16.52.67,5.6,2.64,9.72,7.2,12.35,13.69.83,2.04,1.4,4.04,1.72,6.03.32,1.98.46,4.57.43,7.77-.02,1.78.17,3.17.57,4.16.33.83,1.01,1.57,2.02,2.24,1.01.67,2.28,1.02,3.82,1.07l.72,1.77-24.44,9.9-.72-1.77c6.31-4.18,10.46-9,12.45-14.46,1.99-5.46,2.06-10.49.19-15.1-1.44-3.56-3.56-6.01-6.36-7.34-2.8-1.33-5.48-1.47-8.06-.43-1.53.62-2.84,1.62-3.95,3.02-1.1,1.39-1.96,3.17-2.58,5.35-.62,2.18-1.11,5.78-1.48,10.82-.51,7.06-1.26,12.29-2.26,15.69-.99,3.4-2.46,6.3-4.42,8.71-1.95,2.4-4.44,4.22-7.46,5.44-5.16,2.09-10.31,1.97-15.47-.34-5.16-2.32-8.91-6.36-11.24-12.12-.85-2.1-1.42-4.24-1.71-6.42-.22-1.65-.25-3.76-.09-6.33.16-2.57.07-4.28-.28-5.14-.34-.83-.85-1.38-1.56-1.65s-2.11-.22-4.22.15l-.58-1.43Z"/>
    <path class="r" d="M65.71,576.55c-2.26-10.9-.56-20.35,5.08-28.35,5.65-8,13.58-12.87,23.8-14.59,8.73-1.47,16.85-.21,24.35,3.78,9.94,5.29,15.96,14.1,18.04,26.46,2.09,12.39-.49,22.68-7.74,30.86-5.73,6.47-13.15,10.47-22.26,12.01-10.22,1.73-19.33-.31-27.33-6.12-7.99-5.81-12.65-13.82-13.95-24.04ZM68.85,575.39c1.06,6.3,5.09,10.54,12.07,12.74,5.73,1.78,13.54,1.84,23.42.17,11.75-1.98,20.08-5.51,25-10.59,3.44-3.54,4.72-7.9,3.85-13.08-.59-3.49-1.93-6.26-4.01-8.31-2.67-2.61-6.52-4.35-11.56-5.2-5.04-.86-11.38-.64-19.03.65-9.11,1.54-15.77,3.53-20.01,5.99-4.23,2.46-7.06,5.15-8.48,8.09-1.42,2.94-1.84,6.11-1.26,9.53Z"/>
    <path class="r" d="M58.98,505.46l2.45-35.96,1.9.13-.12,1.8c-.19,2.71-.03,4.58.47,5.63.5,1.05,1.23,1.82,2.19,2.32.96.5,3.43.88,7.41,1.15l34.11,2.33c6.23.43,10.39.24,12.48-.57,2.09-.8,3.87-2.24,5.35-4.31,1.48-2.07,2.34-4.74,2.56-8.03.26-3.77-.37-7.04-1.89-9.81-1.51-2.77-3.72-4.92-6.61-6.44-2.89-1.52-8.03-2.54-15.43-3.04l-28.41-1.94c-3.12-.21-5.37-.04-6.75.52-1.38.56-2.36,1.32-2.94,2.28-.89,1.49-1.44,3.64-1.63,6.44l-1.9-.13,1.65-24.09,1.9.13-.1,1.44c-.13,1.95.15,3.61.85,4.96s1.82,2.38,3.35,3.07c1.07.52,3.02.88,5.86,1.07l26.46,1.8c8.19.56,14.06,1.5,17.61,2.83,3.56,1.33,6.72,4.18,9.48,8.57,2.76,4.39,3.9,10.19,3.4,17.42-.41,6.03-1.53,10.63-3.37,13.81-2.5,4.34-5.52,7.31-9.07,8.93-3.55,1.62-8.22,2.23-14.01,1.83l-34.11-2.33c-4.01-.27-6.51-.22-7.52.16s-1.84,1.1-2.49,2.15c-.66,1.06-1.07,3.06-1.24,6.01l-1.9-.13Z"/>
    <path class="r" d="M88.25,341.61l18.1,5.43-.53,1.78c-4.49-.2-7.84.07-10.05.8-2.21.73-4.19,2.06-5.95,3.97-.97,1.07-1.92,3.17-2.86,6.29l-1.5,4.98,51.59,15.48c3.42,1.03,5.61,1.48,6.58,1.36.97-.12,1.94-.64,2.91-1.55.97-.91,1.74-2.32,2.32-4.22l.67-2.22,1.82.55-10.51,35.02-1.82-.55.67-2.22c.58-1.94.71-3.61.37-5-.2-.99-.79-1.9-1.76-2.73-.68-.6-2.7-1.4-6.05-2.41l-51.59-15.48-1.45,4.83c-1.35,4.5-1.38,8.06-.09,10.67,1.8,3.66,5.06,6.61,9.76,8.85l-.56,1.87-18.1-5.43,18.03-60.07Z"/>
    <path class="r" d="M145.5,305.53l18.72,10.83c3.09,1.79,5.12,2.73,6.09,2.84.97.11,2.03-.17,3.19-.83,1.15-.66,2.22-1.84,3.2-3.53l1.16-2.01,1.65.95-18.28,31.6-1.65-.95,1.16-2.01c1.01-1.75,1.52-3.35,1.51-4.78.03-1.01-.34-2.02-1.11-3.02-.52-.74-2.3-1.99-5.33-3.74l-39.76-23c-3.09-1.79-5.12-2.74-6.08-2.86-.96-.12-2.02.15-3.18.81-1.15.66-2.22,1.84-3.2,3.53l-1.16,2.01-1.65-.95,18.28-31.6,1.65.95-1.16,2.01c-1.01,1.75-1.52,3.35-1.51,4.78-.03,1.01.33,2.03,1.08,3.07.52.74,2.3,1.99,5.33,3.74l17.12,9.9,12.35-21.35-17.12-9.9c-3.09-1.79-5.12-2.74-6.08-2.86-.96-.12-2.02.16-3.19.83-1.16.68-2.24,1.86-3.22,3.55l-1.14,1.96-1.65-.95,18.26-31.56,1.65.95-1.14,1.96c-1.03,1.78-1.54,3.38-1.51,4.78-.03,1.01.33,2.04,1.08,3.07.52.74,2.3,1.99,5.33,3.74l39.76,23c3.09,1.79,5.12,2.74,6.08,2.86.96.12,2.02-.16,3.19-.83,1.16-.67,2.24-1.86,3.21-3.55l1.14-1.96,1.65.95-18.26,31.56-1.65-.95,1.14-1.96c1.03-1.78,1.54-3.37,1.51-4.78.03-1.01-.33-2.04-1.08-3.06-.52-.74-2.3-1.99-5.33-3.74l-18.72-10.83-12.35,21.35Z"/>
    <path class="r" d="M180.48,201.48l20.65,19.53.96-1.01c3.04-3.22,4.24-6.5,3.59-9.86-.65-3.36-2.76-7.1-6.32-11.22l1.34-1.42,26.56,25.12-1.34,1.42c-3.18-2.44-6.14-4.05-8.89-4.83-2.76-.78-5.05-.84-6.89-.17-1.84.67-3.9,2.22-6.19,4.64l14.29,13.52c2.8,2.64,4.62,4.14,5.46,4.49.85.35,1.78.39,2.79.12,1.01-.27,2.2-1.13,3.57-2.58l2.87-3.03c4.48-4.74,6.98-9.57,7.48-14.51.51-4.93-.9-10.14-4.21-15.64l1.31-1.38,13.97,17.53-41.47,43.85-1.38-1.31,1.59-1.68c1.39-1.47,2.25-2.9,2.58-4.3.26-.98.14-2.04-.38-3.2-.34-.84-1.78-2.46-4.32-4.87l-33.37-31.56c-2.29-2.17-3.76-3.44-4.4-3.81-1.11-.58-2.22-.75-3.33-.53-1.59.29-3.17,1.25-4.73,2.9l-1.59,1.68-1.38-1.31,40.16-42.46,15,14.19-1.35,1.42c-4.35-2.74-7.94-4.21-10.78-4.42-2.83-.2-5.76.54-8.77,2.23-1.77.97-4.47,3.38-8.1,7.22l-4.95,5.24Z"/>
    <path class="r" d="M291.02,167.99l-20.56,13.63,1.31,7.29c.45,2.42,1.09,4.24,1.9,5.47,1.08,1.63,2.54,2.4,4.37,2.3,1.08-.05,3.21-.97,6.39-2.75l1.05,1.59-19.35,12.83-1.05-1.59c1.88-1.7,3.02-3.7,3.43-6.01.41-2.31.13-6.33-.84-12.08l-9.98-60.24.82-.54,52.63,33.81c5,3.19,8.53,4.95,10.6,5.27,1.56.24,3.28-.15,5.14-1.19l1.05,1.59-28.15,18.67-1.05-1.59,1.16-.77c2.26-1.5,3.64-2.87,4.14-4.1.32-.87.2-1.74-.36-2.6-.34-.52-.78-.99-1.31-1.42-.23-.22-1.37-1.01-3.42-2.36l-7.9-5.2ZM287.45,165.78l-21.96-14.29,4.36,25.96,17.59-11.67Z"/>
    <path class="r" d="M360.05,77.71l8.93,21.5-1.97.76c-3.04-5.08-7.01-8.58-11.93-10.49-4.92-1.91-9.49-2.04-13.71-.41-3.27,1.26-5.51,3.14-6.74,5.62-1.23,2.48-1.4,4.86-.52,7.13.56,1.44,1.39,2.59,2.49,3.45,1.51,1.15,3.58,2.06,6.19,2.74,1.91.47,6.11,1,12.59,1.58,9.07.8,15.58,2.35,19.52,4.65,3.91,2.31,6.7,5.62,8.36,9.9,2.11,5.44,1.8,10.95-.93,16.51-2.72,5.56-7.35,9.61-13.88,12.14-2.05.79-4.07,1.33-6.05,1.62-1.99.29-4.58.39-7.78.3-1.78-.04-3.17.12-4.17.51-.83.32-1.59.98-2.27,1.98-.68,1-1.06,2.27-1.12,3.8l-1.78.69-9.52-24.59,1.78-.69c4.09,6.37,8.84,10.59,14.26,12.67,5.42,2.08,10.46,2.22,15.1.42,3.59-1.39,6.07-3.47,7.44-6.25,1.37-2.78,1.56-5.46.55-8.06-.59-1.54-1.58-2.87-2.95-3.99-1.37-1.12-3.15-2.01-5.31-2.67-2.17-.65-5.76-1.2-10.8-1.65-7.05-.62-12.27-1.45-15.66-2.5-3.39-1.04-6.26-2.56-8.64-4.55-2.37-1.99-4.15-4.51-5.32-7.55-2.01-5.19-1.81-10.34.58-15.47,2.4-5.12,6.49-8.81,12.29-11.05,2.11-.82,4.26-1.35,6.44-1.61,1.65-.2,3.76-.2,6.33,0,2.56.2,4.28.14,5.14-.2.83-.32,1.39-.83,1.67-1.53.28-.7.25-2.1-.09-4.22l1.44-.56Z"/>
    <path class="r" d="M460.13,57.93l2.98,18.66-1.83.29c-1.77-4.13-3.47-7.03-5.09-8.7-1.62-1.67-3.68-2.88-6.16-3.63-1.39-.4-3.69-.35-6.91.17l-5.14.82,8.51,53.19c.56,3.53,1.11,5.7,1.64,6.52s1.42,1.47,2.66,1.95c1.24.48,2.84.56,4.81.25l2.29-.37.3,1.88-36.1,5.77-.3-1.88,2.29-.37c2-.32,3.55-.93,4.66-1.84.81-.62,1.37-1.54,1.7-2.77.24-.87.09-3.04-.47-6.5l-8.51-53.19-4.98.8c-4.65.74-7.86,2.27-9.65,4.57-2.51,3.22-3.75,7.43-3.71,12.64l-1.93.31-2.98-18.66,61.93-9.9Z"/>
  </g>
  <text class="s" transform="translate(690.69 630.42) scale(.98 1)"><tspan x="0" y="0">南京</tspan></text>
  <g id="k" data-name="university">
    <path class="r" d="M537.29,58.62l35.49,6.28-.33,1.87-1.78-.31c-2.67-.47-4.55-.52-5.65-.14-1.1.38-1.94,1.02-2.54,1.93-.6.91-1.24,3.32-1.93,7.24l-5.96,33.67c-1.09,6.15-1.35,10.31-.77,12.47.58,2.16,1.81,4.09,3.71,5.78,1.89,1.69,4.47,2.83,7.71,3.4,3.72.66,7.03.38,9.95-.83,2.92-1.21,5.29-3.17,7.11-5.88,1.82-2.71,3.38-7.72,4.67-15.02l4.96-28.04c.54-3.08.61-5.33.2-6.76-.41-1.43-1.06-2.49-1.95-3.17-1.38-1.05-3.46-1.82-6.23-2.31l.33-1.88,23.78,4.21-.33,1.88-1.42-.25c-1.93-.34-3.6-.24-5.02.31-1.42.55-2.56,1.55-3.41,3.01-.63,1.01-1.19,2.91-1.69,5.71l-4.62,26.11c-1.43,8.08-2.99,13.82-4.69,17.21-1.7,3.4-4.88,6.23-9.53,8.51-4.66,2.28-10.55,2.79-17.68,1.53-5.95-1.05-10.41-2.66-13.37-4.82-4.05-2.95-6.68-6.27-7.91-9.97-1.23-3.7-1.34-8.41-.33-14.13l5.96-33.67c.7-3.95.91-6.45.65-7.49-.27-1.04-.89-1.94-1.87-2.71-.98-.77-2.93-1.39-5.84-1.87l.33-1.88Z"/>
    <path class="r" d="M656.11,88.07l15.11,53.24,11.57-27.7c1.61-3.86,2.15-6.71,1.61-8.53-.75-2.47-2.93-4.42-6.54-5.86l.73-1.76,21.29,8.89-.73,1.76c-2.87-.79-4.89-1.1-6.05-.94-1.17.16-2.27.76-3.32,1.8-1.05,1.03-2.2,3.07-3.47,6.11l-22.4,53.65-1.62-.67-21.17-71.84-17.1,40.96c-1.55,3.71-1.74,6.56-.59,8.57,1.15,2.01,2.82,3.47,5.01,4.38l1.52.63-.73,1.76-22.86-9.54.74-1.76c3.56,1.45,6.34,1.75,8.32.91,1.99-.84,3.7-2.98,5.13-6.4l18.99-45.47-.66-2.29c-.65-2.28-1.38-3.91-2.2-4.88-.82-.98-2.2-1.9-4.14-2.79l.73-1.76,22.85,9.54Z"/>
    <path class="r" d="M715.42,196.1l-1.03,1.61-30.75-19.68,1.03-1.6,1.95,1.25c1.71,1.09,3.27,1.67,4.7,1.73,1.01.08,2.03-.25,3.07-.97.76-.49,2.09-2.21,3.97-5.16l24.76-38.69c1.92-3.01,2.97-4.99,3.13-5.94.16-.95-.06-2.02-.67-3.21-.61-1.18-1.74-2.3-3.38-3.36l-1.95-1.25,1.03-1.61,30.75,19.68-1.03,1.6-1.95-1.25c-1.71-1.09-3.27-1.67-4.7-1.73-1.01-.08-2.05.24-3.11.94-.76.49-2.09,2.21-3.97,5.16l-24.76,38.69c-1.93,3.01-2.96,4.99-3.11,5.96-.15.96.08,2.04.69,3.22.61,1.18,1.74,2.3,3.39,3.36l1.95,1.25Z"/>
    <path class="r" d="M826.43,202.5l-1.29,1.4c-2.14-1.42-4.73-1.96-7.75-1.63-2.22.28-6.54,1.79-12.94,4.52l-53.87,22.85-1.25-1.15,20.1-57.01c2.43-6.87,3.68-11.07,3.75-12.59.07-1.52-.78-3.32-2.56-5.38l1.29-1.4,24.58,22.72-1.29,1.4-.83-.77c-2.22-2.05-3.99-3.17-5.31-3.36-.93-.16-1.73.13-2.41.86-.42.45-.81,1.08-1.18,1.89-.37.81-1.22,3.09-2.55,6.86l-12.67,35.62,31.14-13.36c3.75-1.63,6.19-2.78,7.34-3.46,1.14-.68,2.01-1.34,2.62-2,.7-.76,1.11-1.61,1.25-2.56.13-.95-.05-1.94-.55-2.97-.69-1.43-1.93-2.97-3.72-4.63l1.29-1.4,16.83,15.56Z"/>
    <path class="r" d="M855.02,246.37l-23.31,16.27.8,1.14c2.53,3.63,5.51,5.47,8.93,5.51,3.42.04,7.51-1.27,12.27-3.92l1.12,1.6-29.98,20.93-1.12-1.6c3.03-2.62,5.21-5.19,6.53-7.73,1.33-2.54,1.85-4.77,1.56-6.71-.28-1.94-1.38-4.27-3.29-7l-16.13,11.26c-3.15,2.2-4.99,3.68-5.5,4.44-.52.76-.75,1.66-.69,2.71.06,1.05.66,2.38,1.8,4.02l2.39,3.42c3.73,5.35,7.96,8.77,12.69,10.26,4.73,1.49,10.11,1.18,16.17-.95l1.09,1.56-20,10.13-34.54-49.49,1.56-1.09,1.33,1.9c1.16,1.66,2.39,2.79,3.69,3.39.9.46,1.97.55,3.2.27.89-.16,2.77-1.24,5.64-3.25l37.66-26.29c2.59-1.81,4.13-2.99,4.62-3.54.79-.97,1.18-2.02,1.19-3.15.04-1.62-.59-3.36-1.88-5.22l-1.33-1.9,1.56-1.09,33.45,47.92-16.93,11.82-1.12-1.6c3.57-3.71,5.74-6.93,6.51-9.66.77-2.74.63-5.75-.41-9.04-.59-1.93-2.4-5.06-5.43-9.4l-4.13-5.91Z"/>
    <path class="r" d="M868.98,338.36l-18.07,7.51c-3.49,1.45-5.59,2.58-6.32,3.38-.73.8-1.14,1.86-1.22,3.16-.09,1.3.48,3.43,1.7,6.37l-1.76.73-13.72-33,1.76-.73c1.24,2.98,2.36,4.89,3.35,5.72,1,.83,2.03,1.28,3.09,1.34,1.06.06,3.34-.64,6.83-2.09l41.84-17.4c3.49-1.45,5.59-2.58,6.32-3.38.72-.8,1.13-1.85,1.22-3.16.09-1.3-.48-3.43-1.7-6.37l1.76-.73,12.46,29.95c3.24,7.8,5.08,13.73,5.5,17.79.42,4.06-.34,7.84-2.29,11.32-1.95,3.49-4.88,6.04-8.77,7.67-4.75,1.98-9.4,1.9-13.93-.23-2.88-1.37-5.62-3.82-8.24-7.34l-15.38,24.58c-1.98,3.2-3.14,5.38-3.48,6.52-.44,1.71-.36,3.44.26,5.19l-1.76.73-8.44-20.3,20.74-33-1.76-4.23ZM900.59,325.21l-28.24,11.74,1.13,2.71c1.83,4.4,3.61,7.53,5.33,9.38,1.72,1.85,3.89,2.96,6.52,3.34,2.63.37,5.64-.14,9.03-1.55,4.91-2.04,8.06-4.7,9.46-7.97,1.39-3.27,1.02-7.46-1.1-12.57l-2.12-5.09Z"/>
    <path class="r" d="M939.08,437.77l-22.74,5-.4-2.07c5.54-2.09,9.68-5.39,12.42-9.89,2.74-4.5,3.68-8.98,2.82-13.43-.67-3.44-2.12-5.98-4.34-7.63-2.23-1.65-4.54-2.24-6.93-1.77-1.52.29-2.79.91-3.84,1.85-1.39,1.28-2.66,3.16-3.79,5.62-.8,1.8-2.06,5.84-3.78,12.12-2.38,8.79-5.05,14.92-8.01,18.4-2.97,3.44-6.71,5.61-11.22,6.49-5.73,1.12-11.09-.16-16.09-3.82-5-3.66-8.16-8.93-9.5-15.8-.42-2.16-.6-4.24-.53-6.24.06-2,.42-4.58,1.07-7.71.36-1.75.44-3.15.23-4.19-.17-.88-.69-1.74-1.55-2.58s-2.05-1.44-3.55-1.78l-.36-1.87,25.88-5.04.36,1.87c-6.99,2.9-11.99,6.84-14.99,11.81-3,4.97-4.03,9.9-3.08,14.79.73,3.77,2.35,6.58,4.84,8.42,2.49,1.84,5.1,2.49,7.83,1.96,1.62-.32,3.1-1.05,4.45-2.2,1.35-1.15,2.53-2.74,3.56-4.76,1.02-2.02,2.2-5.46,3.52-10.34,1.85-6.83,3.59-11.82,5.22-14.97,1.63-3.15,3.63-5.72,6-7.7,2.37-1.98,5.16-3.29,8.37-3.91,5.46-1.06,10.5.04,15.12,3.3,4.62,3.26,7.53,7.94,8.71,14.04.43,2.22.58,4.43.45,6.63-.1,1.66-.47,3.74-1.12,6.23-.65,2.49-.89,4.19-.71,5.1.17.88.57,1.51,1.21,1.92.64.4,2.03.62,4.17.66l.29,1.52Z"/>
    <path class="r" d="M874.19,507.38l-1.9.06-1.22-36.49,1.9-.06.08,2.32c.07,2.02.48,3.64,1.24,4.85.51.88,1.36,1.53,2.54,1.98.84.35,3,.47,6.5.35l45.91-1.54c3.57-.12,5.79-.38,6.67-.79.88-.41,1.64-1.2,2.27-2.37.63-1.17.91-2.73.85-4.69l-.08-2.32,1.9-.06,1.22,36.49-1.9.06-.08-2.32c-.07-2.02-.48-3.64-1.25-4.85-.51-.88-1.36-1.55-2.54-2.03-.83-.35-3-.47-6.5-.35l-45.91,1.54c-3.57.12-5.79.39-6.67.82-.88.42-1.64,1.22-2.27,2.4-.63,1.17-.91,2.73-.85,4.69l.08,2.32Z"/>
    <path class="r" d="M932.86,593.95l-18.7-2.69.26-1.83c4.47-.47,7.75-1.23,9.82-2.28,2.08-1.05,3.84-2.66,5.3-4.8.8-1.21,1.43-3.42,1.89-6.65l.74-5.15-53.31-7.67c-3.53-.51-5.77-.63-6.71-.37-.94.26-1.82.92-2.65,1.96-.83,1.04-1.38,2.55-1.66,4.52l-.33,2.29-1.89-.27,5.2-36.19,1.89.27-.33,2.29c-.29,2.01-.16,3.67.38,5,.35.95,1.06,1.77,2.14,2.44.76.49,2.88.99,6.34,1.48l53.31,7.67.72-5c.67-4.65.17-8.18-1.5-10.57-2.33-3.35-5.98-5.79-10.97-7.3l.28-1.94,18.7,2.69-8.93,62.08Z"/>
    <path class="r" d="M900.01,690.12l-1.78-.68c.53-2.26.54-4.15.02-5.67-.73-2.12-3.43-6.06-8.1-11.81l-18.2-23.18-15.77-6.04c-3.37-1.29-5.53-1.91-6.48-1.87-.95.04-1.94.46-2.96,1.26-1.03.8-1.87,2.07-2.53,3.8l-1.4,3.65-1.78-.68,14.01-36.6,1.78.68-1.31,3.41c-.74,1.92-.98,3.57-.74,4.95.13,1.01.65,1.96,1.55,2.85.63.65,2.59,1.6,5.86,2.85l13.08,5.01,33.81-4.64c6.68-.94,10.75-1.84,12.2-2.72,1.46-.88,2.6-2.35,3.43-4.42l1.78.68-11.97,31.26-1.78-.68.53-1.39c.72-1.89.96-3.32.7-4.28-.26-.96-.69-1.56-1.3-1.79-1.15-.44-4.55-.27-10.18.51l-26.1,3.51,15.18,19.27c3.69,4.76,6.32,7.44,7.89,8.04.87.33,1.75.19,2.64-.42,1.22-.78,2.47-2.6,3.74-5.46l1.78.68-7.62,19.91Z"/>
  </g>
  <circle id="l" data-name="右点" class="v" cx="793.31" cy="779.05" r="12.56"/>
  <path class="r" d="M500.28,146.14c-193.9,0-352.05,158.33-352.05,352.44s149.75,343.86,336.46,352.08l-3.35-4.99c-182.5-9.9-328.29-161.99-328.29-347.09S309.04,150.97,500.28,150.97s347.23,156.16,347.23,347.62-146.3,337.74-329.25,347.15l-2.41,4.93c186.73-8.2,336.49-163.18,336.49-352.08s-158.15-352.44-352.05-352.44Z"/>
</svg>